<?xml version="1.0" encoding="UTF-8"?>
<svg version="1.1" xmlns="http://www.w3.org/2000/svg" width="493" height="534">
<path d="M0 0 C0.99128906 -0.00773438 1.98257813 -0.01546875 3.00390625 -0.0234375 C11.71627708 0.98755434 19.00160881 4.41513596 26.5625 8.6875 C27.50770508 9.21239014 28.45291016 9.73728027 29.42675781 10.27807617 C38.43639944 15.30917494 47.34532166 20.51502923 56.2421875 25.7421875 C62.5800545 29.46525694 68.943328 33.14330309 75.3125 36.8125 C76.39241211 37.43487549 77.47232422 38.05725098 78.58496094 38.69848633 C80.77496549 39.96045935 82.96506984 41.22225919 85.15527344 42.48388672 C90.58409942 45.61180148 96.01069281 48.74358448 101.4375 51.875 C103.60415583 53.12501879 105.7708225 54.37501878 107.9375 55.625 C112.27083333 58.125 116.60416667 60.625 120.9375 63.125 C122.01016113 63.74383057 123.08282227 64.36266113 124.18798828 65.00024414 C126.35307071 66.24935518 128.51810982 67.49854129 130.68310547 68.74780273 C137.21836861 72.5186761 143.75518424 76.28683766 150.29345703 80.05249023 C153.53108338 81.91938441 156.76558009 83.79162008 160 85.6640625 C164.360208 88.18580475 168.73659693 90.67611579 173.125 93.1484375 C175.2708652 94.36973568 177.4166997 95.5910878 179.5625 96.8125 C180.53977051 97.35527588 181.51704102 97.89805176 182.52392578 98.45727539 C193.73669383 104.87813672 200.97345792 112.88933794 205.25 125.125 C208.11911823 135.68335508 207.13045431 146.48148529 201.97265625 156.109375 C199.90343867 159.61034948 197.69295059 162.99182412 195.4375 166.375 C196.2625 166.21 197.0875 166.045 197.9375 165.875 C209.84168371 164.17440233 221.65115093 166.83869857 231.4921875 173.8359375 C239.6354836 180.3813038 245.37712854 190.09350337 246.71611285 200.55096519 C246.81970901 202.78849516 246.83785734 205.00869074 246.81845093 207.2485199 C246.8231309 208.0944494 246.82781087 208.94037891 246.83263266 209.81194264 C246.84451395 212.62145556 246.83515248 215.43047446 246.82568359 218.23999023 C246.82975238 220.26447838 246.83509598 222.2889643 246.84161377 224.31344604 C246.85525747 229.79487036 246.85000061 235.27612473 246.84047651 240.75755191 C246.83286364 246.50374215 246.83993014 252.24991817 246.84463501 257.99610901 C246.85008825 267.64562584 246.8429127 277.29507372 246.82861328 286.94458008 C246.81229227 298.08667545 246.81757309 309.22860607 246.8340925 320.37069744 C246.84772515 329.95058804 246.84961818 339.53042917 246.84177649 349.11032635 C246.83710918 354.8259886 246.83644913 360.54157353 246.84638596 366.25723076 C246.85507904 371.63272018 246.84899088 377.00799813 246.83170319 382.38346481 C246.82775066 384.35142606 246.82885115 386.31940523 246.83549118 388.28735924 C246.90556179 411.17206896 246.90556179 411.17206896 240.6875 420.0625 C240.23890625 420.72636719 239.7903125 421.39023437 239.328125 422.07421875 C233.33420984 429.36846674 226.8748858 433.80478221 218.625 438.375 C216.88366257 439.35937867 215.14233481 440.34377496 213.40161133 441.32923889 C211.60381647 442.3451924 209.80336198 443.35629866 208.00244141 444.36669922 C202.41160125 447.50899624 196.86413085 450.72662022 191.3125 453.9375 C190.23492432 454.55890869 189.15734863 455.18031738 188.04711914 455.82055664 C180.87098851 459.95978199 173.71318033 464.12950036 166.5625 468.3125 C157.29250223 473.73421178 147.97918248 479.07704915 138.64904785 484.39422607 C129.52980361 489.59252585 120.44617521 494.84899043 111.38598633 500.1496582 C102.88798845 505.11959877 94.3680185 510.05077647 85.83154297 514.9543457 C80.84185263 517.82226595 75.86435273 520.70492515 70.92578125 523.66015625 C70.07733643 524.16393799 69.2288916 524.66771973 68.35473633 525.18676758 C66.81406616 526.10345154 65.27817218 527.02824534 63.7487793 527.96362305 C53.36146885 534.11650779 42.62548346 535.93228533 30.671875 533.90625 C20.22346156 531.14629173 11.62170856 525.2330903 5.4375 516.375 C3.53422292 512.79072637 1.90756691 509.15618172 0.4375 505.375 C-1.148649 507.7542235 -2.44006634 510.03651871 -3.75 512.5625 C-9.47970797 522.82267473 -17.1821803 529.32057679 -28.3125 533.25 C-41.63895629 536.73827304 -53.70729 533.80521218 -65.5078125 527.23046875 C-67.57422027 526.01885079 -69.63389009 524.7956851 -71.6875 523.5625 C-73.39689841 522.55616061 -75.10630759 521.549839 -76.81634521 520.54458618 C-78.57521134 519.50883395 -80.33123532 518.46839024 -82.08691406 517.42724609 C-87.55004051 514.19359789 -93.05894447 511.03914792 -98.5625 507.875 C-100.72937281 506.62535738 -102.89603906 505.37535653 -105.0625 504.125 C-106.135 503.50625 -107.2075 502.8875 -108.3125 502.25 C-120.22916667 495.375 -132.14583333 488.5 -144.0625 481.625 C-145.13516113 481.00616943 -146.20782227 480.38733887 -147.31298828 479.74975586 C-149.47807071 478.50064482 -151.64310982 477.25145871 -153.80810547 476.00219727 C-159.24865706 472.86297691 -164.68997216 469.72509437 -170.1328125 466.58984375 C-183.72772581 458.7567719 -197.30106983 450.88811332 -210.84277344 442.96337891 C-213.44666695 441.44264899 -216.05469178 439.92927617 -218.6640625 438.41796875 C-220.19275104 437.52871925 -221.72139965 436.63940109 -223.25 435.75 C-223.92683838 435.36030029 -224.60367676 434.97060059 -225.30102539 434.5690918 C-230.86909525 431.31848484 -235.37367239 428.09569225 -239.125 422.8125 C-239.96224609 421.66587891 -239.96224609 421.66587891 -240.81640625 420.49609375 C-247.15006508 409.1748557 -247.13659484 398.75719665 -247.08007812 386.11523438 C-247.0855054 384.07236738 -247.09263144 382.0295043 -247.10131836 379.98664856 C-247.11948251 374.46391174 -247.1125127 368.94147536 -247.09980202 363.4187336 C-247.08963851 357.624973 -247.09907698 351.83123725 -247.10534668 346.03747559 C-247.11261333 336.30993049 -247.10306113 326.58250707 -247.08398438 316.85498047 C-247.06221761 305.62647865 -247.06926967 294.39826741 -247.09129 283.16977262 C-247.10947196 273.50998567 -247.11198864 263.85028593 -247.10153532 254.19048738 C-247.09531578 248.42953005 -247.09442235 242.66870907 -247.10768127 236.90776062 C-247.11927983 231.49032247 -247.11114086 226.07325709 -247.08810425 220.65585899 C-247.08283854 218.67380579 -247.08429407 216.69172094 -247.09315491 214.70968056 C-247.15243964 200.0954307 -246.14157221 188.45683999 -235.5625 177.375 C-226.09641371 168.33837698 -215.47009394 165.44136295 -202.5625 165.375 C-199.82854126 165.5556219 -197.26496683 165.89809409 -194.5625 166.375 C-194.94921875 165.9625 -195.3359375 165.55 -195.734375 165.125 C-204.23094032 155.70306618 -207.0754081 145.91018746 -206.875 133.234375 C-205.82375322 120.2514773 -199.6827359 111.78918581 -190.19604492 103.453125 C-185.65410642 99.86909046 -180.65209023 97.22128677 -175.5625 94.5 C-173.32084861 93.27353438 -171.07996362 92.04566695 -168.83984375 90.81640625 C-167.75815918 90.22617676 -166.67647461 89.63594727 -165.56201172 89.02783203 C-161.70552076 86.90277556 -157.90728538 84.69127221 -154.125 82.4375 C-147.15556523 78.30055359 -140.14746961 74.23377765 -133.125 70.1875 C-132.01777588 69.54949463 -130.91055176 68.91148926 -129.76977539 68.25415039 C-127.49912932 66.94610523 -125.22837642 65.63824552 -122.95751953 64.33056641 C-117.4908002 61.18167946 -112.02675113 58.02816736 -106.5625 54.875 C-104.39584689 53.6249765 -102.22918021 52.37497653 -100.0625 51.125 C-98.99 50.50625 -97.9175 49.8875 -96.8125 49.25 C-87.0625 43.625 -87.0625 43.625 -83.81201172 41.74975586 C-81.64692929 40.50064482 -79.48189018 39.25145871 -77.31689453 38.00219727 C-71.87634294 34.86297691 -66.43502784 31.72509437 -60.9921875 28.58984375 C-59.9081665 27.9649707 -58.82414551 27.34009766 -57.70727539 26.69628906 C-55.54065435 25.44805133 -53.37318339 24.20128759 -51.20483398 22.95605469 C-45.76665056 19.82729337 -40.35536619 16.66221853 -34.98046875 13.42578125 C-33.9126416 12.78777588 -32.84481445 12.14977051 -31.74462891 11.49243164 C-29.73642052 10.29030408 -27.73424075 9.07801744 -25.73974609 7.85327148 C-17.67955565 3.04659889 -9.5075762 -0.07437478 0 0 Z M-12.5625 271.375 C-12.17578125 271.931875 -11.7890625 272.48875 -11.390625 273.0625 C-6.51022624 280.21397541 -2.66930999 286.94776004 -0.5625 295.375 C-0.2325 295.375 0.0975 295.375 0.4375 295.375 C0.58445313 294.76914062 0.73140625 294.16328125 0.8828125 293.5390625 C3.14278732 285.09662783 7.1415639 278.27863099 12.4375 271.375 C11.53 271.54 10.6225 271.705 9.6875 271.875 C2.39701538 272.91437663 -5.3616786 272.97518253 -12.5625 271.375 Z " fill="#FEFEFE" transform="translate(246.5625,-0.375)"/>
<path d="M0 0 C1.57201172 -0.04253906 1.57201172 -0.04253906 3.17578125 -0.0859375 C11.90348441 1.05963422 19.7115843 6.48002978 27.25 10.75 C28.34062744 11.36431885 29.43125488 11.9786377 30.55493164 12.61157227 C39.95466359 17.92299278 49.28347516 23.35288111 58.59765625 28.8125 C64.90320419 32.5071331 71.23044436 36.16352681 77.5625 39.8125 C78.64265381 40.43503662 79.72280762 41.05757324 80.83569336 41.69897461 C83.02546334 42.96076826 85.21532355 44.22240534 87.40527344 45.48388672 C92.83409942 48.61180148 98.26069281 51.74358448 103.6875 54.875 C105.85415583 56.12501879 108.0208225 57.37501878 110.1875 58.625 C114.52083333 61.125 118.85416667 63.625 123.1875 66.125 C124.2607251 66.74415283 125.3339502 67.36330566 126.43969727 68.0012207 C128.59909395 69.2470577 130.75843669 70.49298818 132.91772461 71.73901367 C139.57630925 75.58118135 146.23692138 79.4198042 152.89916992 83.25561523 C156.17226101 85.14268043 159.44174081 87.03588587 162.7109375 88.9296875 C166.40830598 91.06952627 170.11834941 93.18120357 173.8515625 95.2578125 C184.10610819 101.00803506 191.94931606 106.24904477 196.03125 117.73828125 C198.26221087 126.70196333 196.76527219 135.60051312 192.45703125 143.68359375 C187.8357169 150.53834537 181.21051762 154.08840226 174.1640625 157.9921875 C170.30607522 160.14633182 166.49133994 162.37438488 162.66918945 164.59130859 C159.30796806 166.53883908 155.94187828 168.47768826 152.57421875 170.4140625 C145.94159141 174.22794024 139.31398617 178.05046481 132.6875 181.875 C130.52085774 183.1250423 128.35419103 184.37504224 126.1875 185.625 C125.115 186.24375 124.0425 186.8625 122.9375 187.5 C102.35416667 199.375 81.77083333 211.25 61.1875 223.125 C60.11363037 223.74463623 59.03976074 224.36427246 57.93334961 225.00268555 C55.7808539 226.24431696 53.62802529 227.48537144 51.47485352 228.72583008 C46.43604974 231.62964461 41.40061104 234.53882253 36.37728882 237.46932983 C34.60457339 238.50312883 32.83077499 239.53504453 31.05664062 240.56640625 C28.8357208 241.85825603 26.61682931 243.15360189 24.40039062 244.453125 C13.3041817 250.89699872 4.33929101 255.86096668 -8.83984375 252.78515625 C-15.34228768 250.43735204 -21.16004683 246.5871617 -27.0234375 242.98046875 C-31.70653073 240.1112805 -36.47365828 237.39770904 -41.25 234.6875 C-48.9671806 230.29986672 -56.65045996 225.85821986 -64.3125 221.375 C-72.64113681 216.50315661 -80.99749365 211.68452831 -89.38330078 206.91186523 C-96.01200687 203.1332157 -102.60333553 199.29314432 -109.1875 195.4375 C-117.17028621 190.76408432 -125.18826775 186.16085685 -133.25 181.625 C-141.89271992 176.76043105 -150.47203886 171.80498244 -158.99902344 166.74072266 C-161.67208894 165.16272261 -164.3552844 163.60267681 -167.0390625 162.04296875 C-169.02604967 160.8828262 -171.0130289 159.72267007 -173 158.5625 C-173.93336182 158.02302734 -174.86672363 157.48355469 -175.82836914 156.92773438 C-185.13540072 151.47442863 -191.56811873 146.30129558 -195.625 136.0625 C-197.51514277 125.92446151 -196.60120994 116.88592175 -190.75 108.25 C-184.31375414 100.31039745 -174.79916941 95.86232584 -166.0078125 91 C-160.64342803 88.0215794 -155.35519188 84.91599322 -150.0625 81.8125 C-141.17771743 76.60997409 -132.25836454 71.47144961 -123.3125 66.375 C-113.47343296 60.76908073 -103.67160137 55.10306327 -93.8984375 49.3828125 C-86.70248384 45.17476483 -79.47337434 41.02828927 -72.22900391 36.90429688 C-65.71039951 33.18777426 -59.22624051 29.41477636 -52.75 25.625 C-44.19722852 20.62942634 -35.63935099 15.64261931 -27.05496216 10.70153809 C-25.82181056 9.99066175 -24.58975051 9.27788811 -23.3588562 8.56311035 C-21.63548925 7.56288909 -19.90766173 6.57036554 -18.1796875 5.578125 C-17.19081543 5.00739258 -16.20194336 4.43666016 -15.18310547 3.84863281 C-10.1272387 1.2531904 -5.67423685 0.0692825 0 0 Z " fill="#FEFEFE" transform="translate(246.3125,9.625)"/>
<path d="M0 0 C2.11803045 1.25858548 4.2365366 2.51637069 6.35546875 3.7734375 C7.44005371 4.42022461 8.52463867 5.06701172 9.64208984 5.73339844 C15.00402107 8.91289892 20.40840911 12.01788241 25.8125 15.125 C27.99747595 16.38397554 30.18237142 17.64309078 32.3671875 18.90234375 C33.45225586 19.52737793 34.53732422 20.15241211 35.65527344 20.79638672 C41.08409942 23.92430148 46.51069281 27.05608448 51.9375 30.1875 C54.10415583 31.43751879 56.2708225 32.68751878 58.4375 33.9375 C77.9375 45.1875 77.9375 45.1875 97.4375 56.4375 C98.51088623 57.0567334 99.58427246 57.6759668 100.69018555 58.31396484 C102.84799803 59.55891282 105.00571353 60.8040289 107.16333008 62.04931641 C112.71466592 65.25302651 118.26786541 68.4534363 123.82421875 71.6484375 C129.26332922 74.77665266 134.69634049 77.9152095 140.125 81.06152344 C142.63081544 82.51019799 145.1427135 83.94760068 147.65625 85.3828125 C158.38109416 91.56275818 166.25029902 97.33502814 169.9375 109.6875 C170.85554531 116.20128789 170.61195935 122.8352614 170.56860352 129.39648438 C170.5737487 131.38024026 170.58103449 133.36399156 170.59028625 135.34773254 C170.60873193 140.7093927 170.59590475 146.07055278 170.57619596 151.43219185 C170.55975166 157.05778664 170.56863038 162.6833512 170.57371521 168.30895996 C170.5782297 177.75406841 170.56240619 187.19897841 170.53442383 196.64404297 C170.50237499 207.54536695 170.50238988 218.4463331 170.5196386 229.34768248 C170.53553268 239.8582426 170.52875156 250.36867223 170.51170158 260.87922668 C170.50485032 265.34149168 170.50584375 269.80365147 170.51324654 274.26591492 C170.52093875 279.52578429 170.50868751 284.78524914 170.48139763 290.04504967 C170.47454347 291.96904488 170.47438374 293.89307808 170.48161316 295.81707191 C170.52441291 308.69695633 170.29222266 320.11580909 160.86328125 329.96875 C153.66476447 336.39338972 146.58333887 338.86478564 137.01171875 339.05078125 C128.4166184 338.03509595 121.31113104 333.91602808 113.9375 329.625 C112.9263916 329.04500244 111.9152832 328.46500488 110.87353516 327.86743164 C104.31487564 324.09596881 97.78536439 320.27397794 91.27563477 316.41870117 C85.84022579 313.20227328 80.36387455 310.06167715 74.875 306.9375 C67.20084191 302.56853461 59.55970271 298.1464733 51.9375 293.6875 C44.46009352 289.313686 36.96585075 284.97304518 29.4375 280.6875 C20.88773057 275.82050796 12.38593317 270.87482248 3.89428711 265.90722656 C-2.7152761 262.04493153 -9.34796886 258.22611875 -16 254.4375 C-18.53974201 252.98645802 -21.07904712 251.53465498 -23.61816406 250.08251953 C-25.24099215 249.15634697 -26.86533289 248.23281961 -28.49121094 247.31201172 C-52.32864956 233.7962918 -52.32864956 233.7962918 -57.0625 219.6875 C-58.14536374 213.02430775 -57.87422208 206.2098606 -57.82299805 199.48193359 C-57.82950118 197.45699627 -57.83856926 195.43206582 -57.84999084 193.40715027 C-57.87296106 187.93811364 -57.85841916 182.4697798 -57.83552146 177.00076628 C-57.81652875 171.26259662 -57.82777559 165.5244718 -57.83442688 159.7862854 C-57.84075593 150.15461128 -57.82255504 140.52321696 -57.78979492 130.89160156 C-57.75228367 119.77148619 -57.75409209 108.6519002 -57.7768361 97.53175676 C-57.79781381 86.8113334 -57.79049609 76.09110487 -57.77051735 65.37068558 C-57.76255099 60.81825793 -57.76449922 56.26599597 -57.77454185 51.71357346 C-57.78512387 46.35019685 -57.77087723 40.9874345 -57.73779869 35.62415504 C-57.72961967 33.66104234 -57.72984217 31.69787308 -57.73927689 29.73476601 C-57.79181168 17.45092167 -57.28851038 8.49715124 -48.875 -1.125 C-33.01434187 -15.83784734 -16.4927846 -9.98247489 0 0 Z " fill="#FEFEFE" transform="translate(67.0625,185.3125)"/>
<path d="M0 0 C0.99128906 -0.00773438 1.98257813 -0.01546875 3.00390625 -0.0234375 C11.71627708 0.98755434 19.00160881 4.41513596 26.5625 8.6875 C27.50770508 9.21239014 28.45291016 9.73728027 29.42675781 10.27807617 C38.43639944 15.30917494 47.34532166 20.51502923 56.2421875 25.7421875 C62.5800545 29.46525694 68.943328 33.14330309 75.3125 36.8125 C76.39241211 37.43487549 77.47232422 38.05725098 78.58496094 38.69848633 C80.77496549 39.96045935 82.96506984 41.22225919 85.15527344 42.48388672 C90.58409942 45.61180148 96.01069281 48.74358448 101.4375 51.875 C103.60415583 53.12501879 105.7708225 54.37501878 107.9375 55.625 C112.27083333 58.125 116.60416667 60.625 120.9375 63.125 C122.01016113 63.74383057 123.08282227 64.36266113 124.18798828 65.00024414 C126.35307071 66.24935518 128.51810982 67.49854129 130.68310547 68.74780273 C137.21836861 72.5186761 143.75518424 76.28683766 150.29345703 80.05249023 C153.53108338 81.91938441 156.76558009 83.79162008 160 85.6640625 C164.360208 88.18580475 168.73659693 90.67611579 173.125 93.1484375 C175.2708652 94.36973568 177.4166997 95.5910878 179.5625 96.8125 C180.53977051 97.35527588 181.51704102 97.89805176 182.52392578 98.45727539 C193.73669383 104.87813672 200.97345792 112.88933794 205.25 125.125 C208.11911823 135.68335508 207.13045431 146.48148529 201.97265625 156.109375 C199.90343867 159.61034948 197.69295059 162.99182412 195.4375 166.375 C196.2625 166.21 197.0875 166.045 197.9375 165.875 C209.84168371 164.17440233 221.65115093 166.83869857 231.4921875 173.8359375 C239.6354836 180.3813038 245.37712854 190.09350337 246.71611285 200.55096519 C246.81970901 202.78849516 246.83785734 205.00869074 246.81845093 207.2485199 C246.8231309 208.0944494 246.82781087 208.94037891 246.83263266 209.81194264 C246.84451395 212.62145556 246.83515248 215.43047446 246.82568359 218.23999023 C246.82975238 220.26447838 246.83509598 222.2889643 246.84161377 224.31344604 C246.85525747 229.79487036 246.85000061 235.27612473 246.84047651 240.75755191 C246.83286364 246.50374215 246.83993014 252.24991817 246.84463501 257.99610901 C246.85008825 267.64562584 246.8429127 277.29507372 246.82861328 286.94458008 C246.81229227 298.08667545 246.81757309 309.22860607 246.8340925 320.37069744 C246.84772515 329.95058804 246.84961818 339.53042917 246.84177649 349.11032635 C246.83710918 354.8259886 246.83644913 360.54157353 246.84638596 366.25723076 C246.85507904 371.63272018 246.84899088 377.00799813 246.83170319 382.38346481 C246.82775066 384.35142606 246.82885115 386.31940523 246.83549118 388.28735924 C246.90556179 411.17206896 246.90556179 411.17206896 240.6875 420.0625 C240.23890625 420.72636719 239.7903125 421.39023437 239.328125 422.07421875 C233.33420984 429.36846674 226.8748858 433.80478221 218.625 438.375 C216.88366257 439.35937867 215.14233481 440.34377496 213.40161133 441.32923889 C211.60381647 442.3451924 209.80336198 443.35629866 208.00244141 444.36669922 C202.41160125 447.50899624 196.86413085 450.72662022 191.3125 453.9375 C190.23492432 454.55890869 189.15734863 455.18031738 188.04711914 455.82055664 C180.87098851 459.95978199 173.71318033 464.12950036 166.5625 468.3125 C157.29250223 473.73421178 147.97918248 479.07704915 138.64904785 484.39422607 C129.52980361 489.59252585 120.44617521 494.84899043 111.38598633 500.1496582 C102.88798845 505.11959877 94.3680185 510.05077647 85.83154297 514.9543457 C80.84185263 517.82226595 75.86435273 520.70492515 70.92578125 523.66015625 C70.07733643 524.16393799 69.2288916 524.66771973 68.35473633 525.18676758 C66.81406616 526.10345154 65.27817218 527.02824534 63.7487793 527.96362305 C53.36146885 534.11650779 42.62548346 535.93228533 30.671875 533.90625 C20.22346156 531.14629173 11.62170856 525.2330903 5.4375 516.375 C3.53422292 512.79072637 1.90756691 509.15618172 0.4375 505.375 C-1.148649 507.7542235 -2.44006634 510.03651871 -3.75 512.5625 C-9.47970797 522.82267473 -17.1821803 529.32057679 -28.3125 533.25 C-41.63895629 536.73827304 -53.70729 533.80521218 -65.5078125 527.23046875 C-67.57422027 526.01885079 -69.63389009 524.7956851 -71.6875 523.5625 C-73.39689841 522.55616061 -75.10630759 521.549839 -76.81634521 520.54458618 C-78.57521134 519.50883395 -80.33123532 518.46839024 -82.08691406 517.42724609 C-87.55004051 514.19359789 -93.05894447 511.03914792 -98.5625 507.875 C-100.72937281 506.62535738 -102.89603906 505.37535653 -105.0625 504.125 C-106.135 503.50625 -107.2075 502.8875 -108.3125 502.25 C-120.22916667 495.375 -132.14583333 488.5 -144.0625 481.625 C-145.13516113 481.00616943 -146.20782227 480.38733887 -147.31298828 479.74975586 C-149.47807071 478.50064482 -151.64310982 477.25145871 -153.80810547 476.00219727 C-159.24865706 472.86297691 -164.68997216 469.72509437 -170.1328125 466.58984375 C-183.72772581 458.7567719 -197.30106983 450.88811332 -210.84277344 442.96337891 C-213.44666695 441.44264899 -216.05469178 439.92927617 -218.6640625 438.41796875 C-220.19275104 437.52871925 -221.72139965 436.63940109 -223.25 435.75 C-223.92683838 435.36030029 -224.60367676 434.97060059 -225.30102539 434.5690918 C-230.86909525 431.31848484 -235.37367239 428.09569225 -239.125 422.8125 C-239.96224609 421.66587891 -239.96224609 421.66587891 -240.81640625 420.49609375 C-247.15006508 409.1748557 -247.13659484 398.75719665 -247.08007812 386.11523438 C-247.0855054 384.07236738 -247.09263144 382.0295043 -247.10131836 379.98664856 C-247.11948251 374.46391174 -247.1125127 368.94147536 -247.09980202 363.4187336 C-247.08963851 357.624973 -247.09907698 351.83123725 -247.10534668 346.03747559 C-247.11261333 336.30993049 -247.10306113 326.58250707 -247.08398438 316.85498047 C-247.06221761 305.62647865 -247.06926967 294.39826741 -247.09129 283.16977262 C-247.10947196 273.50998567 -247.11198864 263.85028593 -247.10153532 254.19048738 C-247.09531578 248.42953005 -247.09442235 242.66870907 -247.10768127 236.90776062 C-247.11927983 231.49032247 -247.11114086 226.07325709 -247.08810425 220.65585899 C-247.08283854 218.67380579 -247.08429407 216.69172094 -247.09315491 214.70968056 C-247.15243964 200.0954307 -246.14157221 188.45683999 -235.5625 177.375 C-226.09641371 168.33837698 -215.47009394 165.44136295 -202.5625 165.375 C-199.82854126 165.5556219 -197.26496683 165.89809409 -194.5625 166.375 C-194.94921875 165.9625 -195.3359375 165.55 -195.734375 165.125 C-204.23094032 155.70306618 -207.0754081 145.91018746 -206.875 133.234375 C-205.82375322 120.2514773 -199.6827359 111.78918581 -190.19604492 103.453125 C-185.65410642 99.86909046 -180.65209023 97.22128677 -175.5625 94.5 C-173.32084861 93.27353438 -171.07996362 92.04566695 -168.83984375 90.81640625 C-167.75815918 90.22617676 -166.67647461 89.63594727 -165.56201172 89.02783203 C-161.70552076 86.90277556 -157.90728538 84.69127221 -154.125 82.4375 C-147.15556523 78.30055359 -140.14746961 74.23377765 -133.125 70.1875 C-132.01777588 69.54949463 -130.91055176 68.91148926 -129.76977539 68.25415039 C-127.49912932 66.94610523 -125.22837642 65.63824552 -122.95751953 64.33056641 C-117.4908002 61.18167946 -112.02675113 58.02816736 -106.5625 54.875 C-104.39584689 53.6249765 -102.22918021 52.37497653 -100.0625 51.125 C-98.99 50.50625 -97.9175 49.8875 -96.8125 49.25 C-87.0625 43.625 -87.0625 43.625 -83.81201172 41.74975586 C-81.64692929 40.50064482 -79.48189018 39.25145871 -77.31689453 38.00219727 C-71.87634294 34.86297691 -66.43502784 31.72509437 -60.9921875 28.58984375 C-59.9081665 27.9649707 -58.82414551 27.34009766 -57.70727539 26.69628906 C-55.54065435 25.44805133 -53.37318339 24.20128759 -51.20483398 22.95605469 C-45.76665056 19.82729337 -40.35536619 16.66221853 -34.98046875 13.42578125 C-33.9126416 12.78777588 -32.84481445 12.14977051 -31.74462891 11.49243164 C-29.73642052 10.29030408 -27.73424075 9.07801744 -25.73974609 7.85327148 C-17.67955565 3.04659889 -9.5075762 -0.07437478 0 0 Z M-25.5 19.4375 C-27.17176299 20.42206521 -28.84364116 21.40643488 -30.515625 22.390625 C-31.35673828 22.88884766 -32.19785156 23.38707031 -33.06445312 23.90039062 C-36.9437328 26.19034853 -40.84768613 28.43710622 -44.75 30.6875 C-50.9675915 34.28288705 -57.17343921 37.89800438 -63.37426758 41.5222168 C-72.76438558 47.0102008 -82.17643493 52.45498789 -91.62841797 57.83569336 C-98.29878503 61.63861988 -104.93480041 65.49826129 -111.5625 69.375 C-119.88470666 74.24290632 -128.23465115 79.05754905 -136.61352539 83.82714844 C-144.46796537 88.30519832 -152.27881406 92.85662058 -160.078125 97.42993164 C-164.95887647 100.28889738 -169.85349137 103.10806583 -174.80712891 105.83862305 C-184.14875126 111.02133954 -191.39226071 116.24471915 -195.5625 126.375 C-198.11193026 136.63809105 -196.73875431 146.20552589 -191.41796875 155.33984375 C-186.90612463 161.35109226 -179.9685015 164.72285326 -173.5625 168.375 C-172.81548828 168.80409668 -172.06847656 169.23319336 -171.29882812 169.67529297 C-166.96328151 172.16568298 -162.62024905 174.64261509 -158.2734375 177.11328125 C-152.44969394 180.43010869 -146.65998173 183.80363447 -140.875 187.1875 C-129.23194048 193.99457359 -117.55344401 200.73897139 -105.86669922 207.47070312 C-102.53635748 209.39006662 -99.20740852 211.31182353 -95.87890625 213.234375 C-85.91106689 218.99113156 -75.9385839 224.73866485 -65.9375 230.4375 C-58.41185657 234.72732655 -50.91760389 239.06877329 -43.4375 243.4375 C-42.43589844 244.02184814 -41.43429688 244.60619629 -40.40234375 245.20825195 C-35.60604242 248.00778801 -30.81439757 250.81476477 -26.03125 253.63671875 C-24.33337507 254.63288364 -22.63546062 255.62898118 -20.9375 256.625 C-20.17421387 257.07883057 -19.41092773 257.53266113 -18.62451172 258.00024414 C-10.41436532 262.8020032 -3.12538873 264.79248512 6.4375 263.375 C12.12235434 261.33494942 17.21095353 258.37562689 22.4375 255.375 C24.54786552 254.18564492 26.65856836 252.99688825 28.76953125 251.80859375 C35.4193677 248.0460319 42.03886692 244.23233066 48.65258789 240.40673828 C51.4696712 238.77837088 54.2896261 237.15499595 57.109375 235.53125 C62.48186158 232.43622176 67.85130081 229.33595213 73.21972656 226.23388672 C78.62420645 223.11175395 84.03097412 219.99358796 89.4375 216.875 C91.6041775 215.62501878 93.77084417 214.37501879 95.9375 213.125 C108.9375 205.625 108.9375 205.625 112.18798828 203.74975586 C114.35307071 202.50064482 116.51810982 201.25145871 118.68310547 200.00219727 C124.12365706 196.86297691 129.56497216 193.72509437 135.0078125 190.58984375 C140.41162117 187.47671022 145.81260725 184.35872725 151.21191406 181.23779297 C153.38998965 179.97994278 155.56905146 178.72379898 157.74902344 177.46923828 C160.98102781 175.60880681 164.20957063 173.74249069 167.4375 171.875 C168.3980127 171.32384521 169.35852539 170.77269043 170.34814453 170.20483398 C186.0400244 161.3936636 186.0400244 161.3936636 195.25 146.625 C197.45216511 138.27195991 197.16076695 130.98826858 193.99609375 122.95703125 C188.8618065 114.45135739 182.22947996 110.01238291 173.625 105.3125 C171.88148361 104.33392558 170.13798016 103.35532715 168.39529419 102.37527466 C166.59728169 101.3665004 164.79576371 100.36422315 162.99365234 99.36279297 C157.43670406 96.26686798 151.94079086 93.0649736 146.4375 89.875 C144.27372807 88.62579864 142.10966462 87.37710211 139.9453125 86.12890625 C138.87313477 85.51031738 137.80095703 84.89172852 136.69628906 84.25439453 C133.42050434 82.36519834 130.14394107 80.47735891 126.8671875 78.58984375 C116.41543801 72.56752671 105.97450452 66.52830663 95.5625 60.4375 C86.29483917 55.01715502 76.98390471 49.67559615 67.65609741 44.35980225 C59.37058152 39.63681195 51.1092176 34.87454963 42.875 30.0625 C41.90062988 29.49370117 40.92625977 28.92490234 39.92236328 28.33886719 C35.25375268 25.61176064 30.59035953 22.87618924 25.93359375 20.12890625 C24.22661314 19.12751785 22.51958449 18.12621131 20.8125 17.125 C19.66672485 16.44377075 19.66672485 16.44377075 18.49780273 15.7487793 C12.4762397 12.22696394 7.28037333 10.08735066 0.1875 10 C-1.36710937 9.95746094 -1.36710937 9.95746094 -2.953125 9.9140625 C-11.23500978 10.97170579 -18.43425019 15.20534301 -25.5 19.4375 Z M-231.5625 188.375 C-238.22633456 197.43944947 -237.27680841 207.61298115 -237.2253418 218.32177734 C-237.23376366 220.34317466 -237.24429261 222.36456413 -237.25675964 224.38594055 C-237.28374098 229.85512809 -237.27912419 235.32385818 -237.26705909 240.79308271 C-237.2599109 245.36797277 -237.26843866 249.94277913 -237.27696449 254.51766264 C-237.29689608 265.31523765 -237.29137134 276.11259115 -237.26928711 286.91015625 C-237.24693118 298.02909882 -237.2645176 309.14746055 -237.30233639 320.26634824 C-237.33362235 329.83188357 -237.34147037 339.39723959 -237.33038265 348.9628197 C-237.3239113 354.66744976 -237.32582263 360.37174492 -237.34970665 366.07633591 C-237.37103314 371.44302714 -237.36288366 376.80890242 -237.33261299 382.17554283 C-237.32631108 384.13782498 -237.33008435 386.10017115 -237.34502411 388.06240654 C-237.42833756 399.97659624 -237.04656202 410.09202576 -228.68021679 419.4892025 C-223.46911425 424.55580116 -216.86167158 427.92349738 -210.5625 431.4375 C-208.82386242 432.42324816 -207.08523463 433.40901439 -205.34736633 434.39611816 C-204.16320521 435.06810578 -202.97837713 435.73891942 -201.79289246 436.40856934 C-195.94993081 439.70976744 -190.16202545 443.10207408 -184.375 446.5 C-175.53722706 451.67313527 -166.64360383 456.73931417 -157.71850586 461.76000977 C-151.40177298 465.31892427 -145.13448202 468.9508459 -138.89697266 472.64648438 C-133.46226215 475.86112918 -127.9875351 479.00150665 -122.5 482.125 C-114.93186814 486.43456311 -107.39337973 490.79172279 -99.875 495.1875 C-91.17832409 500.27026811 -82.47150409 505.33497876 -73.75 510.375 C-72.69530518 510.98577393 -71.64061035 511.59654785 -70.55395508 512.22583008 C-67.56258944 513.95259583 -64.56470152 515.66715185 -61.5625 517.375 C-60.56299316 517.94734375 -59.56348633 518.5196875 -58.53369141 519.109375 C-57.56995605 519.65078125 -56.6062207 520.1921875 -55.61328125 520.75 C-54.33384644 521.47316406 -54.33384644 521.47316406 -53.02856445 522.2109375 C-46.39637769 525.34154501 -38.45703715 525.42466115 -31.4609375 523.5390625 C-22.57380734 520.18670201 -16.15913119 515.35365397 -12.125 506.625 C-9.90857952 501.09885747 -9.41098163 496.21413221 -9.40187073 490.26806641 C-9.39678291 489.44415437 -9.39169509 488.62024233 -9.38645309 487.77136326 C-9.37073865 485.00643133 -9.36220611 482.24152552 -9.35375977 479.4765625 C-9.34422032 477.49546646 -9.33432912 475.51437208 -9.32411194 473.53327942 C-9.29273161 467.02220638 -9.27245787 460.51112059 -9.25390625 454 C-9.24896027 452.33725477 -9.24896027 452.33725477 -9.24391437 450.64091873 C-9.21312928 440.18211773 -9.18642737 429.72331381 -9.16949558 419.26448059 C-9.14760225 405.89850153 -9.10565897 392.53292485 -9.03605801 379.16710663 C-8.98875584 369.76309688 -8.96455355 360.35919545 -8.9572987 350.9550705 C-8.95235115 345.34194319 -8.9373554 339.72926946 -8.8975544 334.11627197 C-8.86056602 328.83018354 -8.85231852 323.54480544 -8.86556053 318.25861168 C-8.86550678 316.32532592 -8.85529239 314.39200771 -8.8338089 312.45884132 C-8.69805312 299.54585555 -9.84549619 289.71647903 -18.6953125 279.55078125 C-23.35781716 275.32642428 -28.92066769 272.5092217 -34.4375 269.5625 C-36.69738045 268.32692058 -38.95649461 267.08993858 -41.21484375 265.8515625 C-42.30909668 265.25504883 -43.40334961 264.65853516 -44.53076172 264.04394531 C-48.39878443 261.91463276 -52.20765224 259.69809293 -56 257.4375 C-62.96936326 253.30043505 -69.97753231 249.23377654 -77 245.1875 C-78.10722412 244.54949463 -79.21444824 243.91148926 -80.35522461 243.25415039 C-82.62587068 241.94610523 -84.89662358 240.63824552 -87.16748047 239.33056641 C-92.6341998 236.18167946 -98.09824887 233.02816736 -103.5625 229.875 C-105.72915311 228.6249765 -107.89581979 227.37497653 -110.0625 226.125 C-116.5625 222.375 -116.5625 222.375 -123.0625 218.625 C-124.13516113 218.00616943 -125.20782227 217.38733887 -126.31298828 216.74975586 C-128.47807071 215.50064482 -130.64310982 214.25145871 -132.80810547 213.00219727 C-138.24865706 209.86297691 -143.68997216 206.72509437 -149.1328125 203.58984375 C-150.21699463 202.9649707 -151.30117676 202.34009766 -152.41821289 201.69628906 C-154.58353096 200.44861568 -156.74937717 199.20185839 -158.91577148 197.95605469 C-164.37034941 194.81452284 -169.80593325 191.64538975 -175.21484375 188.42578125 C-176.29169434 187.78777588 -177.36854492 187.14977051 -178.47802734 186.49243164 C-180.51002051 185.28663523 -182.53800856 184.0740518 -184.56103516 182.85327148 C-201.27448784 172.95610777 -218.17729572 171.97469851 -231.5625 188.375 Z M180.875 184.6875 C179.04296963 185.75520984 177.21093833 186.8229181 175.37890625 187.890625 C174.41871582 188.45458984 173.45852539 189.01855469 172.46923828 189.59960938 C168.20907462 192.0943678 163.92923058 194.55448144 159.65014648 197.01660156 C154.24194042 200.12915846 148.84009654 203.25272018 143.4375 206.375 C142.57382812 206.87386719 141.71015625 207.37273437 140.8203125 207.88671875 C132.41533083 212.74202369 124.02148933 217.61576153 115.64111328 222.51342773 C106.24563134 228.00393578 96.82869879 233.45206543 87.37158203 238.83569336 C79.68308434 243.21907908 72.04131926 247.68064154 64.40307617 252.15087891 C58.60195118 255.54187241 52.78382795 258.89977598 46.94189453 262.2199707 C42.76685826 264.59299377 38.59968572 266.97951684 34.4375 269.375 C33.76025879 269.76413574 33.08301758 270.15327148 32.38525391 270.55419922 C21.21814751 277.01876094 13.59248039 282.91005884 9.4375 295.375 C9.33518765 298.07766829 9.28969236 300.75482542 9.29032898 303.45779419 C9.28665229 304.29113561 9.2829756 305.12447702 9.2791875 305.98307121 C9.26814217 308.78575808 9.26430536 311.58840789 9.26049805 314.39111328 C9.25423397 316.39663308 9.24758722 318.40215171 9.24058533 320.40766907 C9.22316899 325.86452922 9.21262153 331.3213806 9.2043798 336.77826166 C9.19923029 340.1876748 9.19315449 343.59708521 9.18686867 347.00649643 C9.16781361 357.67400931 9.15358393 368.34151527 9.1452567 379.00904191 C9.1354864 391.32203339 9.10917348 403.63484499 9.06875581 415.9477731 C9.0385887 425.46466986 9.0237872 434.98151509 9.02047569 444.49845874 C9.01812563 450.18237399 9.00917097 455.86609715 8.98401451 461.54996109 C8.96071894 466.89993935 8.95650668 472.24959925 8.96677589 477.5996151 C8.96727102 479.55994285 8.96095745 481.52028635 8.94721985 483.48056602 C8.92947014 486.16419093 8.93662205 488.84667715 8.94975281 491.53030396 C8.93878356 492.29968642 8.92781432 493.06906889 8.91651267 493.86176598 C9.01400012 502.15716947 12.72320485 510.343244 18.4375 516.375 C25.95480058 522.41668232 32.38366522 524.54486948 41.94921875 524.8359375 C51.40697553 523.58620032 59.4589821 518.92943189 67.5 514.0625 C69.61803045 512.80391452 71.7365366 511.54612931 73.85546875 510.2890625 C74.94005371 509.64227539 76.02463867 508.99548828 77.14208984 508.32910156 C82.50402107 505.14960108 87.90840911 502.04461759 93.3125 498.9375 C95.49747595 497.67852446 97.68237142 496.41940922 99.8671875 495.16015625 C100.95225586 494.53512207 102.03732422 493.91008789 103.15527344 493.26611328 C108.58409942 490.13819852 114.01069281 487.00641552 119.4375 483.875 C121.60415583 482.62498121 123.7708225 481.37498122 125.9375 480.125 C127.01 479.50625 128.0825 478.8875 129.1875 478.25 C164.9375 457.625 164.9375 457.625 168.18994141 455.7487793 C170.34868703 454.50322429 172.50721701 453.25729546 174.66552734 452.01098633 C180.20164426 448.81482156 185.74177343 445.62595894 191.2890625 442.44921875 C197.68640862 438.78260354 204.0707681 435.09453464 210.4375 431.375 C211.2924707 430.87564941 212.14744141 430.37629883 213.02832031 429.86181641 C215.25814574 428.54883897 217.47522407 427.21728274 219.6875 425.875 C220.30061035 425.5143042 220.9137207 425.1536084 221.54541016 424.78198242 C229.12593836 420.0966006 233.58719435 413.72426438 236.4375 405.375 C236.93684902 402.41619536 236.97217336 399.55292795 236.93197632 396.55722046 C236.93680515 395.71734136 236.94163398 394.87746227 236.94660914 394.01213229 C236.95779997 391.22309495 236.9406224 388.43499096 236.92333984 385.64599609 C236.92548768 383.63634494 236.9293683 381.62669501 236.93484497 379.61705017 C236.94451187 374.17708074 236.92926882 368.73744114 236.90893888 363.29751158 C236.89133025 357.59797275 236.89489368 351.89844354 236.8956604 346.19888306 C236.89378938 336.63090518 236.87645094 327.06305444 236.84912109 317.49511719 C236.81765452 306.43819145 236.80712566 295.38140478 236.8085922 284.3244375 C236.80994376 272.54257273 236.79605972 260.76076145 236.77769899 248.97891283 C236.77343967 245.58766889 236.7720171 242.1964336 236.77122116 238.80518723 C236.76920996 233.47487627 236.75698132 228.14468176 236.73688889 222.81440926 C236.73105508 220.8597046 236.72858487 218.90498654 236.72974396 216.95027351 C236.73072818 214.27966328 236.71938685 211.60937723 236.70492554 208.93881226 C236.70957134 207.78213911 236.70957134 207.78213911 236.714311 206.60209882 C236.62788663 196.91979224 233.36825936 190.7372008 226.875 183.67578125 C221.21839825 178.2775339 213.74204906 175.29459941 205.9375 174.875 C196.83181549 175.47758999 188.56845463 180.11419418 180.875 184.6875 Z M-12.5625 271.375 C-12.17578125 271.931875 -11.7890625 272.48875 -11.390625 273.0625 C-6.51022624 280.21397541 -2.66930999 286.94776004 -0.5625 295.375 C-0.2325 295.375 0.0975 295.375 0.4375 295.375 C0.58445313 294.76914062 0.73140625 294.16328125 0.8828125 293.5390625 C3.14278732 285.09662783 7.1415639 278.27863099 12.4375 271.375 C11.53 271.54 10.6225 271.705 9.6875 271.875 C2.39701538 272.91437663 -5.3616786 272.97518253 -12.5625 271.375 Z " fill="#030303" transform="translate(246.5625,-0.375)"/>
<path d="M0 0 C8.0240096 7.52014714 12.66262121 16.36370854 15.8125 26.8125 C16.00457031 27.42480469 16.19664062 28.03710938 16.39453125 28.66796875 C18.96244601 41.84353139 16.22156919 56.11560715 9.3515625 67.55859375 C7.49269983 70.2808368 5.50580955 72.8841762 3.5 75.5 C-7.22747823 89.58316194 -14.83842389 104.28292051 -14.73608398 122.32885742 C-14.76688636 126.35806142 -14.88860956 128.33489157 -17.08203125 131.83984375 C-19.1875 133.8125 -19.1875 133.8125 -21.3125 134.3125 C-21.93125 134.4775 -22.55 134.6425 -23.1875 134.8125 C-23.86191131 136.4760479 -24.5275321 138.14316942 -25.1875 139.8125 C-30.82937444 144.890187 -34.5540621 145.09889167 -41.875 145.25 C-42.76123047 145.29576172 -43.64746094 145.34152344 -44.56054688 145.38867188 C-49.42050728 145.47140991 -52.39178469 145.16169647 -56.1640625 141.9453125 C-57.19247128 140.92131885 -58.20208493 139.87793172 -59.1875 138.8125 C-60.074375 137.966875 -60.96125 137.12125 -61.875 136.25 C-67.00051237 130.8474329 -69.22706075 127.98707799 -69.37548828 120.49072266 C-69.59999776 111.24694249 -70.77418045 104.07451075 -75.1875 95.8125 C-75.67089844 94.81605469 -76.15429688 93.81960938 -76.65234375 92.79296875 C-80.02332626 86.1086978 -83.98668074 80.17112876 -88.375 74.125 C-92.59742528 68.29504586 -96.26603342 62.83858563 -98.1875 55.8125 C-98.53683594 54.58917969 -98.88617188 53.36585938 -99.24609375 52.10546875 C-102.30419 39.60128529 -101.05036586 26.24083997 -95.1875 14.8125 C-86.91465483 1.26095655 -75.63705834 -8.69098675 -60.1875 -13.1875 C-38.02132372 -16.78590524 -17.57960989 -14.80388202 0 0 Z " fill="#FDFEFE" transform="translate(165.1875,284.1875)"/>
<path d="M0 0 C1.95922852 0.9453125 1.95922852 0.9453125 3.87890625 2.125 C4.62052002 2.57536621 5.36213379 3.02573242 6.1262207 3.48974609 C6.93019287 3.98812988 7.73416504 4.48651367 8.5625 5 C9.42383545 5.5254541 10.2851709 6.0509082 11.17260742 6.59228516 C13.08103004 7.75687706 14.98759247 8.92452109 16.89257812 10.09472656 C20.74784766 12.45853262 24.6150341 14.80242427 28.48318481 17.14505005 C31.45086782 18.94263065 34.41729923 20.74218963 37.38037109 22.54736328 C43.19420695 26.08885328 49.01680921 29.61286767 54.8671875 33.09375 C55.93477295 33.7326416 57.0023584 34.3715332 58.10229492 35.02978516 C60.11647965 36.2344388 62.13471613 37.43235085 64.1574707 38.62255859 C65.04781006 39.15703613 65.93814941 39.69151367 66.85546875 40.2421875 C67.63559326 40.7047998 68.41571777 41.16741211 69.21948242 41.64404297 C71 43 71 43 72 46 C61.96875 52.26953125 51.9375 58.5390625 41.90625 64.80859375 C40.43925659 65.72572144 40.43925659 65.72572144 38.94262695 66.66137695 C36.97824164 67.88877145 35.01323296 69.11516883 33.04760742 70.34057617 C27.7938891 73.61773342 22.55443774 76.91532115 17.33203125 80.2421875 C16.24083984 80.93376953 15.14964844 81.62535156 14.02539062 82.33789062 C11.93027388 83.6662838 9.8389267 85.00064666 7.75195312 86.34179688 C6.3375293 87.23608398 6.3375293 87.23608398 4.89453125 88.1484375 C4.06800049 88.67614746 3.24146973 89.20385742 2.38989258 89.74755859 C-0.15115827 91.07921564 -2.14639537 91.72935426 -5 92 C-7.42530054 90.79505399 -9.46739025 89.57703589 -11.6875 88.0625 C-13.11338107 87.13096961 -14.54056031 86.20142451 -15.96875 85.2734375 C-16.76152344 84.75362305 -17.55429687 84.23380859 -18.37109375 83.69824219 C-23.41970595 80.43689872 -28.56144336 77.32509071 -33.6875 74.1875 C-35.9326154 72.80781833 -38.17740728 71.42761007 -40.421875 70.046875 C-42.07413086 69.03077148 -42.07413086 69.03077148 -43.75976562 67.99414062 C-51.12980747 63.45838853 -58.49181633 58.90979832 -65.84130859 54.34082031 C-67.20775001 53.49208742 -68.57514519 52.64488649 -69.94384766 51.79980469 C-71.54877071 50.80867248 -73.1496149 49.81094308 -74.75 48.8125 C-75.97976563 48.04873047 -75.97976563 48.04873047 -77.234375 47.26953125 C-79 46 -79 46 -80 44 C-79.2157666 43.54262451 -78.4315332 43.08524902 -77.62353516 42.61401367 C-59.70121453 32.19015288 -59.70121453 32.19015288 -41.9375 21.5 C-41.27419678 21.09450928 -40.61089355 20.68901855 -39.92749023 20.27124023 C-35.85584188 17.77540834 -31.80367225 15.25015212 -27.760849 12.70800781 C-25.21264674 11.11007243 -22.65684313 9.52454984 -20.09988403 7.94067383 C-18.83368794 7.15232456 -17.57081999 6.35860236 -16.31149292 5.55932617 C-14.54262685 4.43730602 -12.76318161 3.3342197 -10.98046875 2.234375 C-9.94817139 1.58694336 -8.91587402 0.93951172 -7.85229492 0.27246094 C-4.56863689 -1.19243897 -3.34459382 -1.17898484 0 0 Z " fill="#524194" transform="translate(374,282)"/>
<path d="M0 0 C8.0240096 7.52014714 12.66262121 16.36370854 15.8125 26.8125 C16.00457031 27.42480469 16.19664062 28.03710938 16.39453125 28.66796875 C18.96244601 41.84353139 16.22156919 56.11560715 9.3515625 67.55859375 C7.49269983 70.2808368 5.50580955 72.8841762 3.5 75.5 C-7.22747823 89.58316194 -14.83842389 104.28292051 -14.73608398 122.32885742 C-14.76688636 126.35806142 -14.88860956 128.33489157 -17.08203125 131.83984375 C-19.1875 133.8125 -19.1875 133.8125 -21.3125 134.3125 C-21.93125 134.4775 -22.55 134.6425 -23.1875 134.8125 C-23.86191131 136.4760479 -24.5275321 138.14316942 -25.1875 139.8125 C-30.82937444 144.890187 -34.5540621 145.09889167 -41.875 145.25 C-42.76123047 145.29576172 -43.64746094 145.34152344 -44.56054688 145.38867188 C-49.42050728 145.47140991 -52.39178469 145.16169647 -56.1640625 141.9453125 C-57.19247128 140.92131885 -58.20208493 139.87793172 -59.1875 138.8125 C-60.074375 137.966875 -60.96125 137.12125 -61.875 136.25 C-67.00051237 130.8474329 -69.22706075 127.98707799 -69.37548828 120.49072266 C-69.59999776 111.24694249 -70.77418045 104.07451075 -75.1875 95.8125 C-75.67089844 94.81605469 -76.15429688 93.81960938 -76.65234375 92.79296875 C-80.02332626 86.1086978 -83.98668074 80.17112876 -88.375 74.125 C-92.59742528 68.29504586 -96.26603342 62.83858563 -98.1875 55.8125 C-98.53683594 54.58917969 -98.88617188 53.36585938 -99.24609375 52.10546875 C-102.30419 39.60128529 -101.05036586 26.24083997 -95.1875 14.8125 C-86.91465483 1.26095655 -75.63705834 -8.69098675 -60.1875 -13.1875 C-38.02132372 -16.78590524 -17.57960989 -14.80388202 0 0 Z M-87.1796875 9.109375 C-95.04574666 19.69947799 -98.52982736 31.69125008 -97.1875 44.8125 C-94.70657115 58.0911078 -89.12116082 67.22109667 -81.203125 77.96484375 C-74.57060419 87.33520745 -68.98429123 97.6253351 -66.1875 108.8125 C-63.2175 108.8125 -60.2475 108.8125 -57.1875 108.8125 C-56.2447654 95.27378364 -61.52818238 85.76390965 -68.1640625 74.4140625 C-72.75408596 66.44006238 -73.37226009 58.8657445 -73.1875 49.8125 C-70.9375 49.9375 -70.9375 49.9375 -68.1875 50.8125 C-65.875 53.875 -65.875 53.875 -64.1875 56.8125 C-62.03260225 54.87309202 -60.78329807 53.14752263 -59.25 50.625 C-58.569375 49.696875 -57.88875 48.76875 -57.1875 47.8125 C-55.8675 47.8125 -54.5475 47.8125 -53.1875 47.8125 C-51.484375 49.78125 -51.484375 49.78125 -49.9375 52.3125 C-49.15632813 53.56546875 -49.15632813 53.56546875 -48.359375 54.84375 C-47.97265625 55.4934375 -47.5859375 56.143125 -47.1875 56.8125 C-44.87444017 54.65896154 -43.21052391 52.8547105 -41.6875 50.0625 C-41.1925 49.32 -40.6975 48.5775 -40.1875 47.8125 C-38.8675 47.8125 -37.5475 47.8125 -36.1875 47.8125 C-34.484375 49.78125 -34.484375 49.78125 -32.9375 52.3125 C-32.15632813 53.56546875 -32.15632813 53.56546875 -31.359375 54.84375 C-30.97265625 55.4934375 -30.5859375 56.143125 -30.1875 56.8125 C-27.85225218 54.55509377 -26.00044927 52.5319239 -24.1875 49.8125 C-22.0625 49.125 -22.0625 49.125 -20.1875 48.8125 C-19.4140588 60.92974543 -22.18421448 70.16265985 -28.6640625 80.359375 C-33.32250232 87.86065758 -36.34650173 94.18434054 -36.25 103.0625 C-36.24097656 104.14015625 -36.23195312 105.2178125 -36.22265625 106.328125 C-36.21105469 107.14796875 -36.19945312 107.9678125 -36.1875 108.8125 C-33.5475 108.8125 -30.9075 108.8125 -28.1875 108.8125 C-27.76791016 107.75675781 -27.76791016 107.75675781 -27.33984375 106.6796875 C-22.48946616 94.73309833 -17.28326025 83.81816026 -9.328125 73.6171875 C-6.2187346 69.54320519 -3.61475786 65.3202646 -1.1875 60.8125 C-0.77371094 60.11769531 -0.35992187 59.42289062 0.06640625 58.70703125 C3.08896558 52.75669667 3.19627833 46.85797102 3.25 40.3125 C3.26015137 39.43424561 3.27030273 38.55599121 3.28076172 37.65112305 C3.11367223 25.02409979 -1.78595756 13.27545175 -10.4375 4 C-22.78298405 -7.27315916 -36.01969846 -11.15611903 -52.40234375 -10.5625 C-66.96606667 -9.65066448 -77.87970211 -1.7572746 -87.1796875 9.109375 Z " fill="#61E5AB" transform="translate(165.1875,284.1875)"/>
<path d="M0 0 C3.93459408 1.35144753 6.39829162 4.19824667 9.25 7.125 C10.14203125 8.03507813 11.0340625 8.94515625 11.953125 9.8828125 C12.62859375 10.58148438 13.3040625 11.28015625 14 12 C18.98588841 10.00333635 22.00746127 5.8943067 25.5625 2.01953125 C28 0 28 0 29.94921875 -0.1328125 C33.00974857 1.55776588 35.3680368 3.85532178 37.8125 6.3125 C38.32748047 6.79912109 38.84246094 7.28574219 39.37304688 7.78710938 C42.9429928 11.33793913 42.9429928 11.33793913 43.171875 13.99609375 C41.3946892 17.03508147 38.96659699 19.34404257 36.4375 21.75 C35.91736328 22.25660156 35.39722656 22.76320312 34.86132812 23.28515625 C33.58089916 24.53034405 32.29132446 25.76611502 31 27 C32.99666365 31.98588841 37.1056933 35.00746127 40.98046875 38.5625 C43 41 43 41 43.1484375 42.953125 C41.41720711 46.0387193 38.97660994 48.33451714 36.4375 50.75 C35.65729492 51.50990234 35.65729492 51.50990234 34.86132812 52.28515625 C33.58089916 53.53034405 32.29132446 54.76611502 31 56 C26.45925821 54.57641609 23.96026853 52.27867927 20.6875 48.875 C19.80449219 47.96492188 18.92148437 47.05484375 18.01171875 46.1171875 C17.34785156 45.41851562 16.68398438 44.71984375 16 44 C11.35344364 45.91762643 8.63273249 49.44495235 5.31640625 53.1015625 C3 55 3 55 0.546875 55.56640625 C-3.0858561 54.7585136 -4.71983328 52.9435766 -7.3125 50.3125 C-8.19550781 49.44238281 -9.07851563 48.57226562 -9.98828125 47.67578125 C-12 45 -12 45 -12.63671875 42.53125 C-11.69547451 38.78937107 -9.24862784 36.71664282 -6.5 34.1875 C-5.97535156 33.68541016 -5.45070313 33.18332031 -4.91015625 32.66601562 C-3.61777468 31.43237867 -2.31030401 30.21458375 -1 29 C-2.91762643 24.35344364 -6.44495235 21.63273249 -10.1015625 18.31640625 C-12 16 -12 16 -12.578125 13.54296875 C-11.74621201 9.88367579 -9.82614366 8.30575632 -7.125 5.75 C-6.22007812 4.87859375 -5.31515625 4.0071875 -4.3828125 3.109375 C-2 1 -2 1 0 0 Z " fill="#2A88AB" transform="translate(276,146)"/>
<path d="M0 0 C0.78503906 0.00773437 1.57007813 0.01546875 2.37890625 0.0234375 C3.55646484 0.01183594 3.55646484 0.01183594 4.7578125 0 C10.62559838 0.02012963 10.62559838 0.02012963 12.87890625 2.2734375 C13.10595703 4.24462891 13.10595703 4.24462891 13.07421875 6.625 C13.06777344 7.47578125 13.06132812 8.3265625 13.0546875 9.203125 C13.03792969 10.09257813 13.02117187 10.98203125 13.00390625 11.8984375 C12.99488281 12.795625 12.98585937 13.6928125 12.9765625 14.6171875 C12.95295595 16.83620336 12.92002935 19.05468827 12.87890625 21.2734375 C13.73440063 21.26558228 13.73440063 21.26558228 14.60717773 21.25756836 C17.17690948 21.23685529 19.74662372 21.2237956 22.31640625 21.2109375 C23.21423828 21.20255859 24.11207031 21.19417969 25.03710938 21.18554688 C25.89111328 21.18232422 26.74511719 21.17910156 27.625 21.17578125 C28.41575928 21.17054443 29.20651855 21.16530762 30.02124023 21.15991211 C31.87890625 21.2734375 31.87890625 21.2734375 32.87890625 22.2734375 C32.97727835 23.60387375 33.00969217 24.93937094 33.01171875 26.2734375 C33.01365234 27.48 33.01365234 27.48 33.015625 28.7109375 C33.01175781 29.5565625 33.00789063 30.4021875 33.00390625 31.2734375 C33.00970703 32.541875 33.00970703 32.541875 33.015625 33.8359375 C33.01433594 34.6403125 33.01304687 35.4446875 33.01171875 36.2734375 C33.01059082 37.0159375 33.00946289 37.7584375 33.00830078 38.5234375 C32.87890625 40.2734375 32.87890625 40.2734375 31.87890625 41.2734375 C30.46320502 41.35995361 29.04331125 41.38048654 27.625 41.37109375 C26.77099609 41.36787109 25.91699219 41.36464844 25.03710938 41.36132812 C24.13927734 41.35294922 23.24144531 41.34457031 22.31640625 41.3359375 C21.41470703 41.33142578 20.51300781 41.32691406 19.58398438 41.32226562 C17.34889311 41.31043975 15.11393188 41.2939597 12.87890625 41.2734375 C12.88414307 41.84376709 12.88937988 42.41409668 12.89477539 43.00170898 C12.91548846 45.57144073 12.92854815 48.14115497 12.94140625 50.7109375 C12.94978516 51.60876953 12.95816406 52.50660156 12.96679688 53.43164062 C12.97001953 54.28564453 12.97324219 55.13964844 12.9765625 56.01953125 C12.98179932 56.81029053 12.98703613 57.6010498 12.99243164 58.41577148 C12.87890625 60.2734375 12.87890625 60.2734375 11.87890625 61.2734375 C10.4754189 61.37203881 9.06710148 61.40422687 7.66015625 61.40625 C6.38591797 61.40818359 6.38591797 61.40818359 5.0859375 61.41015625 C3.74595703 61.40435547 3.74595703 61.40435547 2.37890625 61.3984375 C1.48558594 61.40230469 0.59226563 61.40617187 -0.328125 61.41015625 C-1.17761719 61.40886719 -2.02710938 61.40757813 -2.90234375 61.40625 C-3.68673828 61.40512207 -4.47113281 61.40399414 -5.27929688 61.40283203 C-7.12109375 61.2734375 -7.12109375 61.2734375 -8.12109375 60.2734375 C-8.20760986 58.85773627 -8.22814279 57.4378425 -8.21875 56.01953125 C-8.21552734 55.16552734 -8.21230469 54.31152344 -8.20898438 53.43164062 C-8.20060547 52.53380859 -8.19222656 51.63597656 -8.18359375 50.7109375 C-8.17908203 49.80923828 -8.17457031 48.90753906 -8.16992188 47.97851562 C-8.158096 45.74342436 -8.14161595 43.50846313 -8.12109375 41.2734375 C-8.97658813 41.28129272 -8.97658813 41.28129272 -9.84936523 41.28930664 C-12.41909698 41.31001971 -14.98881122 41.3230794 -17.55859375 41.3359375 C-18.45642578 41.34431641 -19.35425781 41.35269531 -20.27929688 41.36132812 C-21.56030273 41.36616211 -21.56030273 41.36616211 -22.8671875 41.37109375 C-23.65794678 41.37633057 -24.44870605 41.38156738 -25.26342773 41.38696289 C-27.12109375 41.2734375 -27.12109375 41.2734375 -28.12109375 40.2734375 C-28.21946585 38.94300125 -28.25187967 37.60750406 -28.25390625 36.2734375 C-28.25519531 35.4690625 -28.25648438 34.6646875 -28.2578125 33.8359375 C-28.25394531 32.9903125 -28.25007812 32.1446875 -28.24609375 31.2734375 C-28.24996094 30.4278125 -28.25382813 29.5821875 -28.2578125 28.7109375 C-28.25652344 27.9065625 -28.25523437 27.1021875 -28.25390625 26.2734375 C-28.25277832 25.5309375 -28.25165039 24.7884375 -28.25048828 24.0234375 C-28.12109375 22.2734375 -28.12109375 22.2734375 -27.12109375 21.2734375 C-25.70539252 21.18692139 -24.28549875 21.16638846 -22.8671875 21.17578125 C-21.58618164 21.18061523 -21.58618164 21.18061523 -20.27929688 21.18554688 C-19.38146484 21.19392578 -18.48363281 21.20230469 -17.55859375 21.2109375 C-16.65689453 21.21544922 -15.75519531 21.21996094 -14.82617188 21.22460938 C-12.59108061 21.23643525 -10.35611938 21.2529153 -8.12109375 21.2734375 C-8.13156738 20.70834473 -8.14204102 20.14325195 -8.15283203 19.56103516 C-8.19434163 17.00688097 -8.22040335 14.45279768 -8.24609375 11.8984375 C-8.26285156 11.00898437 -8.27960938 10.11953125 -8.296875 9.203125 C-8.30332031 8.35234375 -8.30976563 7.5015625 -8.31640625 6.625 C-8.32687988 5.83947754 -8.33735352 5.05395508 -8.34814453 4.24462891 C-7.7851507 -0.6431261 -4.0301828 0.01382567 0 0 Z " fill="#2987AB" transform="translate(208.12109375,60.7265625)"/>
<path d="M0 0 C3.98788363 1.21841957 7.37407759 2.63824116 10.9140625 4.8359375 C11.83106934 5.40022461 12.74807617 5.96451172 13.69287109 6.54589844 C14.66047363 7.14950195 15.62807617 7.75310547 16.625 8.375 C18.67138352 9.63881699 20.71826895 10.90182159 22.765625 12.1640625 C23.79880859 12.8024707 24.83199219 13.44087891 25.89648438 14.09863281 C28.89032032 15.9328048 31.90046837 17.73511332 34.921875 19.5234375 C35.84145996 20.06822754 36.76104492 20.61301758 37.70849609 21.17431641 C39.45927811 22.20888399 41.21214876 23.23992676 42.96728516 24.26708984 C43.74894043 24.73066895 44.5305957 25.19424805 45.3359375 25.671875 C46.02220215 26.0750293 46.7084668 26.47818359 47.41552734 26.89355469 C49 28 49 28 50 30 C50.08586809 32.32416296 50.10711043 34.65083307 50.09765625 36.9765625 C50.0962413 37.66181 50.09482635 38.3470575 50.09336853 39.05307007 C50.08776675 41.24375761 50.07521406 43.4343433 50.0625 45.625 C50.05748522 47.10937352 50.05292228 48.59374865 50.04882812 50.078125 C50.03779677 53.71878315 50.02053099 57.35938164 50 61 C47.02935447 59.85538846 44.22759975 58.656346 41.4765625 57.0546875 C40.8475 56.70019531 40.2184375 56.34570312 39.5703125 55.98046875 C38.2759539 55.24491959 36.98680466 54.5001251 35.703125 53.74609375 C31.30785261 51.29729913 28.15040648 50.4708065 23 51 C20.82438713 51.57772213 20.82438713 51.57772213 19.0625 52.5 C18.051875 52.995 17.04125 53.49 16 54 C15.96261719 53.24074219 15.92523438 52.48148437 15.88671875 51.69921875 C15.82097656 50.70535156 15.75523437 49.71148437 15.6875 48.6875 C15.62949219 47.70136719 15.57148438 46.71523438 15.51171875 45.69921875 C14.58347955 40.8029341 10.88098796 39.12650578 6.9375 36.4375 C4.41474118 34.71491138 2.16055991 33.16055991 0 31 C-0.22705078 27.92724609 -0.22705078 27.92724609 -0.1953125 24.0234375 C-0.1924826 23.33819 -0.18965271 22.6529425 -0.18673706 21.94692993 C-0.17553281 19.75610973 -0.15042859 17.56569684 -0.125 15.375 C-0.11497048 13.8906309 -0.10584458 12.4062554 -0.09765625 10.921875 C-0.07559294 7.28111739 -0.04106176 3.64059844 0 0 Z " fill="#554396" transform="translate(316,349)"/>
<path d="M0 0 C0.22346359 4.44711646 0.38620917 8.89121982 0.49438477 13.34228516 C0.53949166 14.85393198 0.60080227 16.36518934 0.67895508 17.87548828 C1.31191145 30.42705441 1.31191145 30.42705441 -1.90063477 34.27880859 C-4.21882209 35.83314238 -6.42521323 36.93664093 -9 38 C-10.36345259 38.77556464 -11.71876586 39.56575218 -13.0625 40.375 C-14.031875 40.91125 -15.00125 41.4475 -16 42 C-16 46.95 -16 51.9 -16 57 C-19.40755272 55.07119658 -22.74147635 53.1723491 -26 51 C-29.93848444 50.5501154 -32.11424113 51.30973539 -35.42578125 53.40625 C-36.22177734 53.90253906 -37.01777344 54.39882813 -37.83789062 54.91015625 C-38.65451172 55.43480469 -39.47113281 55.95945312 -40.3125 56.5 C-41.14845703 57.02464844 -41.98441406 57.54929687 -42.84570312 58.08984375 C-44.90363557 59.38340129 -46.95449406 60.68691408 -49 62 C-52.84252656 58.15747344 -51.50302685 51.43192181 -51.5625 46.25 C-51.61212891 44.97382813 -51.66175781 43.69765625 -51.71289062 42.3828125 C-51.81182684 33.35606081 -51.81182684 33.35606081 -49.81713867 30.02416992 C-47.98596081 28.3614017 -46.15520265 27.2159929 -44 26 C-43.13238037 25.44940918 -42.26476074 24.89881836 -41.37084961 24.33154297 C-38.34186542 22.43263929 -35.27316911 20.61770069 -32.1875 18.8125 C-29.96182124 17.4954984 -27.73656417 16.17778391 -25.51171875 14.859375 C-24.41520996 14.21162109 -23.31870117 13.56386719 -22.18896484 12.89648438 C-16.82840364 9.70854689 -11.52123188 6.43423417 -6.21948242 3.1496582 C-1.10559933 0 -1.10559933 0 0 0 Z " fill="#564596" transform="translate(425,348)"/>
<path d="M0 0 C3.82807009 1.27602336 4.0817987 2.99660684 5.8828125 6.41015625 C6.97187842 8.29169806 6.97187842 8.29169806 9.75 8.9375 C10.86375 8.9684375 10.86375 8.9684375 12 9 C12.268125 8.2575 12.53625 7.515 12.8125 6.75 C13.94229421 4.13363446 15.20893202 2.19812889 17 0 C20.82807009 1.27602336 21.0817987 2.99660684 22.8828125 6.41015625 C23.97187842 8.29169806 23.97187842 8.29169806 26.75 8.9375 C27.86375 8.9684375 27.86375 8.9684375 29 9 C29.28875 8.195625 29.5775 7.39125 29.875 6.5625 C31 4 31 4 33 3 C34.07956551 12.28426335 29.49008094 21.0380745 24.4375 28.5625 C18.51115448 37.45847399 16.55575193 46.44071332 16 57 C11.71 57 7.42 57 3 57 C2.731875 55.06125 2.46375 53.1225 2.1875 51.125 C0.50975044 40.55631907 -2.39514687 33.03032004 -8.12890625 24.03515625 C-12.29248041 17.28130004 -13.53339096 10.85190387 -14 3 C-12.29159719 4.63412443 -11.06546953 5.86906094 -10 8 C-7.47266765 8.65555119 -7.47266765 8.65555119 -5 9 C-4.731875 8.2575 -4.46375 7.515 -4.1875 6.75 C-3.05770579 4.13363446 -1.79106798 2.19812889 0 0 Z " fill="#FCFEFD" transform="translate(109,336)"/>
<path d="M0 0 C1.17792114 -0.00315216 2.35584229 -0.00630432 3.56945801 -0.009552 C4.85171265 -0.00752777 6.13396729 -0.00550354 7.45507812 -0.00341797 C8.76085815 -0.00437469 10.06663818 -0.00533142 11.4119873 -0.00631714 C14.17945535 -0.0077938 16.94689116 -0.00564058 19.71435547 -0.00097656 C23.26895462 0.00472073 26.82347827 0.00144155 30.37807465 -0.00454903 C33.75791526 -0.00902294 37.13773536 -0.00589433 40.51757812 -0.00341797 C41.79983276 -0.0054422 43.0820874 -0.00746643 44.40319824 -0.009552 C46.17007996 -0.00482376 46.17007996 -0.00482376 47.97265625 0 C49.0155481 0.00079559 50.05843994 0.00159119 51.13293457 0.00241089 C53.48632812 0.12939453 53.48632812 0.12939453 54.48632812 1.12939453 C54.58470022 2.45983078 54.61711405 3.79532797 54.61914062 5.12939453 C54.62107422 6.33595703 54.62107422 6.33595703 54.62304688 7.56689453 C54.61917969 8.41251953 54.6153125 9.25814453 54.61132812 10.12939453 C54.61712891 11.39783203 54.61712891 11.39783203 54.62304688 12.69189453 C54.62175781 13.49626953 54.62046875 14.30064453 54.61914062 15.12939453 C54.6180127 15.87189453 54.61688477 16.61439453 54.61572266 17.37939453 C54.48632812 19.12939453 54.48632812 19.12939453 53.48632812 20.12939453 C51.65060182 20.22844605 49.81105237 20.2573866 47.97265625 20.25878906 C46.79473511 20.26194122 45.61681396 20.26509338 44.40319824 20.26834106 C43.1209436 20.26631683 41.83868896 20.2642926 40.51757812 20.26220703 C39.2117981 20.26316376 37.90601807 20.26412048 36.56066895 20.2651062 C33.7932009 20.26658286 31.02576509 20.26442964 28.25830078 20.25976562 C24.70370163 20.25406834 21.14917798 20.25734751 17.5945816 20.26333809 C14.21474099 20.267812 10.83492089 20.26468339 7.45507812 20.26220703 C6.17282349 20.26423126 4.89056885 20.26625549 3.56945801 20.26834106 C1.80257629 20.26361282 1.80257629 20.26361282 0 20.25878906 C-1.04289185 20.25799347 -2.08578369 20.25719788 -3.16027832 20.25637817 C-5.51367188 20.12939453 -5.51367188 20.12939453 -6.51367188 19.12939453 C-6.61204397 17.79895828 -6.6444578 16.46346109 -6.64648438 15.12939453 C-6.64777344 14.32501953 -6.6490625 13.52064453 -6.65039062 12.69189453 C-6.64652344 11.84626953 -6.64265625 11.00064453 -6.63867188 10.12939453 C-6.64253906 9.28376953 -6.64640625 8.43814453 -6.65039062 7.56689453 C-6.64910156 6.76251953 -6.6478125 5.95814453 -6.64648438 5.12939453 C-6.64535645 4.38689453 -6.64422852 3.64439453 -6.64306641 2.87939453 C-6.3541179 -1.02849768 -3.22546956 0.00246062 0 0 Z " fill="#2C89AC" transform="translate(186.513671875,162.87060546875)"/>
<path d="M0 0 C1.17792114 -0.00315216 2.35584229 -0.00630432 3.56945801 -0.009552 C4.85171265 -0.00752777 6.13396729 -0.00550354 7.45507812 -0.00341797 C8.76085815 -0.00437469 10.06663818 -0.00533142 11.4119873 -0.00631714 C14.17945535 -0.0077938 16.94689116 -0.00564058 19.71435547 -0.00097656 C23.26895462 0.00472073 26.82347827 0.00144155 30.37807465 -0.00454903 C33.75791526 -0.00902294 37.13773536 -0.00589433 40.51757812 -0.00341797 C41.79983276 -0.0054422 43.0820874 -0.00746643 44.40319824 -0.009552 C46.17007996 -0.00482376 46.17007996 -0.00482376 47.97265625 0 C49.0155481 0.00079559 50.05843994 0.00159119 51.13293457 0.00241089 C53.48632812 0.12939453 53.48632812 0.12939453 54.48632812 1.12939453 C54.58470022 2.45983078 54.61711405 3.79532797 54.61914062 5.12939453 C54.62107422 6.33595703 54.62107422 6.33595703 54.62304688 7.56689453 C54.61917969 8.41251953 54.6153125 9.25814453 54.61132812 10.12939453 C54.61712891 11.39783203 54.61712891 11.39783203 54.62304688 12.69189453 C54.62175781 13.49626953 54.62046875 14.30064453 54.61914062 15.12939453 C54.6180127 15.87189453 54.61688477 16.61439453 54.61572266 17.37939453 C54.48632812 19.12939453 54.48632812 19.12939453 53.48632812 20.12939453 C51.65060182 20.22844605 49.81105237 20.2573866 47.97265625 20.25878906 C46.79473511 20.26194122 45.61681396 20.26509338 44.40319824 20.26834106 C43.1209436 20.26631683 41.83868896 20.2642926 40.51757812 20.26220703 C39.2117981 20.26316376 37.90601807 20.26412048 36.56066895 20.2651062 C33.7932009 20.26658286 31.02576509 20.26442964 28.25830078 20.25976562 C24.70370163 20.25406834 21.14917798 20.25734751 17.5945816 20.26333809 C14.21474099 20.267812 10.83492089 20.26468339 7.45507812 20.26220703 C6.17282349 20.26423126 4.89056885 20.26625549 3.56945801 20.26834106 C1.80257629 20.26361282 1.80257629 20.26361282 0 20.25878906 C-1.04289185 20.25799347 -2.08578369 20.25719788 -3.16027832 20.25637817 C-5.51367188 20.12939453 -5.51367188 20.12939453 -6.51367188 19.12939453 C-6.61204397 17.79895828 -6.6444578 16.46346109 -6.64648438 15.12939453 C-6.64777344 14.32501953 -6.6490625 13.52064453 -6.65039062 12.69189453 C-6.64652344 11.84626953 -6.64265625 11.00064453 -6.63867188 10.12939453 C-6.64253906 9.28376953 -6.64640625 8.43814453 -6.65039062 7.56689453 C-6.64910156 6.76251953 -6.6478125 5.95814453 -6.64648438 5.12939453 C-6.64535645 4.38689453 -6.64422852 3.64439453 -6.64306641 2.87939453 C-6.3541179 -1.02849768 -3.22546956 0.00246062 0 0 Z " fill="#2686AA" transform="translate(267.513671875,81.87060546875)"/>
<path d="M0 0 C2.64 0 5.28 0 8 0 C8 6.6 8 13.2 8 20 C14.6 20 21.2 20 28 20 C28 22.97 28 25.94 28 29 C21.73 29.33 15.46 29.66 9 30 C8.67 36.6 8.34 43.2 8 50 C5.03 50 2.06 50 -1 50 C-1 43.4 -1 36.8 -1 30 C-7.93 29.67 -14.86 29.34 -22 29 C-22 21 -22 21 -21 20 C-19.58672053 19.84379445 -18.1664541 19.74943827 -16.74609375 19.68359375 C-15.89208984 19.64169922 -15.03808594 19.59980469 -14.15820312 19.55664062 C-12.81145508 19.49766602 -12.81145508 19.49766602 -11.4375 19.4375 C-10.08495117 19.37272461 -10.08495117 19.37272461 -8.70507812 19.30664062 C-6.47021515 19.20021858 -4.23523692 19.09820012 -2 19 C-1.93941406 17.71222656 -1.87882812 16.42445312 -1.81640625 15.09765625 C-1.73201753 13.41925841 -1.6473687 11.74087364 -1.5625 10.0625 C-1.52318359 9.21236328 -1.48386719 8.36222656 -1.44335938 7.48632812 C-1.40146484 6.67744141 -1.35957031 5.86855469 -1.31640625 5.03515625 C-1.27974854 4.2862915 -1.24309082 3.53742676 -1.20532227 2.76586914 C-1 1 -1 1 0 0 Z " fill="#F5F9FB" transform="translate(207,67)"/>
<path d="M0 0 C3.90285767 1.58667578 6.33520982 4.13350481 9.25 7.125 C10.14203125 8.03507813 11.0340625 8.94515625 11.953125 9.8828125 C12.62859375 10.58148438 13.3040625 11.28015625 14 12 C18.54074179 10.57641609 21.03973147 8.27867927 24.3125 4.875 C25.19550781 3.96492187 26.07851563 3.05484375 26.98828125 2.1171875 C27.65214844 1.41851562 28.31601562 0.71984375 29 0 C31.46800047 1.15173355 33.04783565 2.04783565 35 4 C34.90596555 7.12328704 33.86688023 8.13782602 31.6796875 10.40234375 C29.80832058 12.09387179 27.9333058 13.78137278 26.0546875 15.46484375 C23.76447962 17.78091001 23.76447962 17.78091001 23.875 20.5 C25.82529012 24.83397805 29.46377456 27.46812976 32.9453125 30.59765625 C35 33 35 33 34.90234375 35.19921875 C33.88339072 37.23271377 32.70975973 38.51325241 31 40 C26.01411159 38.00333635 22.99253873 33.8943067 19.4375 30.01953125 C17.27466713 27.83169986 17.27466713 27.83169986 15.046875 27.8515625 C11.9612807 29.58279289 9.66548286 32.02339006 7.25 34.5625 C6.74339844 35.08263672 6.23679687 35.60277344 5.71484375 36.13867188 C4.46965595 37.41910084 3.23388498 38.70867554 2 40 C-1.36720387 38.60667426 -2.9859524 37.0210714 -5 34 C-3.68322266 32.78763672 -3.68322266 32.78763672 -2.33984375 31.55078125 C-1.20495508 30.47216805 -0.07088245 29.39269579 1.0625 28.3125 C1.64322266 27.78205078 2.22394531 27.25160156 2.82226562 26.70507812 C6.11014067 23.64724488 6.11014067 23.64724488 7.21875 19.46875 C5.55104593 16.09058022 3.15289157 13.72661146 0.4375 11.1875 C-0.08263672 10.68541016 -0.60277344 10.18332031 -1.13867188 9.66601562 C-2.4168857 8.43470873 -3.70727147 7.2160593 -5 6 C-3.35 4.02 -1.7 2.04 0 0 Z " fill="#FAFCFD" transform="translate(276,154)"/>
<path d="M0 0 C3.26778393 2.12016933 6.24076697 4.48153395 8 8 C8.40710593 12.23390162 8.25575965 14.51588352 6.25 18.3125 C2.87891094 22.3390786 1.353706 22.84716223 -3.875 23.4375 C-7.12458092 23.3646122 -8.89939678 22.71798257 -11.4375 20.6875 C-14.4736549 17.50323998 -14.92826688 15.96839717 -15.25 11.625 C-14.97926023 7.69927335 -14.44616236 6.03661534 -12 3 C-8.07573947 -0.16120987 -4.96881593 -0.77102316 0 0 Z " fill="#2A88AB" transform="translate(214,187)"/>
<path d="M0 0 C3.07469523 1.70251719 5.40613254 3.81226508 7 7 C7.37766377 12.00404498 7.11200434 14.99885156 4 19 C1.47450701 21.81689603 -0.71884281 22.2730238 -4.375 22.5 C-7.81427659 22.3921679 -9.80530532 21.84195396 -12.5 19.6875 C-15.42018052 16.54830594 -15.89788294 14.90203407 -16.375 10.6875 C-15.87765929 5.79698299 -14.42915508 4.42915508 -11 1 C-7.51556578 -0.74221711 -3.80112955 -0.58675154 0 0 Z " fill="#2585A9" transform="translate(215,136)"/>
<path d="M0 0 C16.5 0 33 0 50 0 C50 2.64 50 5.28 50 8 C33.5 8 17 8 0 8 C0 5.36 0 2.72 0 0 Z " fill="#FDFEFE" transform="translate(266,88)"/>
<path d="M0 0 C16.17 0 32.34 0 49 0 C49 2.64 49 5.28 49 8 C32.83 8 16.66 8 0 8 C0 5.36 0 2.72 0 0 Z " fill="#FFFFFF" transform="translate(186,169)"/>
<path d="M0 0 C12.21 0 24.42 0 37 0 C37 1.65 37 3.3 37 5 C24.79 5 12.58 5 0 5 C0 3.35 0 1.7 0 0 Z " fill="#E6FAF1" transform="translate(100,396)"/>
<path d="M0 0 C12.21 0 24.42 0 37 0 C37 1.32 37 2.64 37 4 C24.79 4 12.58 4 0 4 C0 2.68 0 1.36 0 0 Z " fill="#FFFFFF" transform="translate(100,404)"/>
<path d="M0 0 C-0.47763553 4.29871976 -3.03715002 6.03715002 -6 9 C-11.04536495 15.78898372 -14.10857659 21.40728647 -14.55859375 29.9140625 C-15.09397889 32.44411263 -16.04717177 33.36483183 -18 35 C-19.59399326 33.40600674 -19.2470667 31.77001275 -19.3125 29.5625 C-19.1863284 19.7211152 -14.15883752 10.3462045 -7.38671875 3.328125 C-4.78807498 1.03254887 -3.54292026 0 0 0 Z " fill="#67E6AF" transform="translate(92,290)"/>
<path d="M0 0 C11.55 0 23.1 0 35 0 C32 4 32 4 29.04492188 4.51757812 C27.86478516 4.52208984 26.68464844 4.52660156 25.46875 4.53125 C24.18355469 4.53640625 22.89835937 4.5415625 21.57421875 4.546875 C20.90567871 4.53849609 20.23713867 4.53011719 19.54833984 4.52148438 C17.50627819 4.50006585 15.46773362 4.52128292 13.42578125 4.546875 C11.49798828 4.53914063 11.49798828 4.53914063 9.53125 4.53125 C7.76104492 4.52448242 7.76104492 4.52448242 5.95507812 4.51757812 C3 4 3 4 0 0 Z " fill="#FDFEFE" transform="translate(101,412)"/>
<path d="M0 0 C2.9375 0.8125 2.9375 0.8125 4.9375 2.8125 C5.271228 5.94954316 5.46599028 7.97804166 3.75 10.6875 C1.28242892 12.21909584 -0.20769831 12.24072025 -3.0625 11.8125 C-4.875 10.6875 -4.875 10.6875 -6.0625 8.8125 C-6.45954314 5.63615485 -6.56183741 3.67246999 -4.9375 0.875 C-3.0625 -0.1875 -3.0625 -0.1875 0 0 Z " fill="#F1F7F9" transform="translate(211.0625,141.1875)"/>
<path d="M0 0 C1.8125 1.125 1.8125 1.125 3 3 C3.3125 6.0625 3.3125 6.0625 3 9 C1 11 1 11 -2.5 11.3125 C-4.2325 11.1578125 -4.2325 11.1578125 -6 11 C-8.15502531 7.76746204 -8.46856135 6.74849077 -8 3 C-5.85607122 -0.27231235 -3.76836426 -0.56525464 0 0 Z " fill="#F7FAFB" transform="translate(213,193)"/>
<path d="M0 0 C-1.48956456 0.84248111 -2.97915331 1.68491945 -4.46875 2.52734375 C-5.42563721 3.06858887 -6.38252441 3.60983398 -7.3684082 4.16748047 C-9.46267943 5.35119189 -11.55757317 6.53380258 -13.65307617 7.71533203 C-18.45435143 10.42332668 -23.25100715 13.13700859 -28.01953125 15.90234375 C-29.11974609 16.53571655 -29.11974609 16.53571655 -30.2421875 17.18188477 C-31.5987865 17.96368893 -32.95181553 18.7517283 -34.30078125 19.54663086 C-35.83368578 20.42561451 -37.41312744 21.22266865 -39 22 C-39.66 21.67 -40.32 21.34 -41 21 C-37.5914223 18.14825762 -34.17586601 15.83707356 -30.2890625 13.6875 C-29.20882813 13.08679688 -28.12859375 12.48609375 -27.015625 11.8671875 C-25.33726562 10.94292969 -25.33726562 10.94292969 -23.625 10 C-21.40874397 8.77103204 -19.19259524 7.54187054 -16.9765625 6.3125 C-15.93661133 5.74144531 -14.89666016 5.17039062 -13.82519531 4.58203125 C-11.49404554 3.27665184 -9.22974485 1.9084756 -6.9609375 0.5 C-3.72091073 -1.14138559 -3.244513 -1.06142798 0 0 Z " fill="#EAE8F2" transform="translate(421,364)"/>
<path d="M0 0 C13.34665854 7.07567137 26.16039712 15.0537365 39 23 C38.01 23.495 38.01 23.495 37 24 C35.25097656 23.33837891 35.25097656 23.33837891 33.140625 22.2265625 C32.36082275 21.81801025 31.58102051 21.40945801 30.77758789 20.98852539 C29.94348389 20.53856201 29.10937988 20.08859863 28.25 19.625 C27.39978271 19.17181396 26.54956543 18.71862793 25.67358398 18.25170898 C18.19221384 14.21063077 11.01275637 9.80959027 4 5 C3.21496094 4.46246094 2.42992187 3.92492187 1.62109375 3.37109375 C1.08613281 2.91863281 0.55117188 2.46617187 0 2 C0 1.34 0 0.68 0 0 Z " fill="#E4E1EE" transform="translate(322,362)"/>
<path d="M0 0 C0 0.99 0 1.98 0 3 C-1.7728693 4.7728693 -4.40793952 4.62783103 -6.8125 5 C-10.25658683 5.53695873 -13.63418175 6.08723573 -17 7 C-17 5.68 -17 4.36 -17 3 C-11.10261508 0.70657253 -6.33393082 -0.34548714 0 0 Z " fill="#68E6AF" transform="translate(115,283)"/>
<path d="M0 0 C5.01318989 1.47355037 9.29857289 3.62154739 13.8125 6.1875 C14.864375 6.78099243 14.864375 6.78099243 15.9375 7.38647461 C21.3278004 10.48577279 26.28800676 13.92936139 31 18 C30.34 18.33 29.68 18.66 29 19 C26.64916992 17.78417969 26.64916992 17.78417969 23.73046875 15.921875 C22.67666016 15.25542969 21.62285156 14.58898437 20.53710938 13.90234375 C19.43173828 13.19207031 18.32636719 12.48179687 17.1875 11.75 C15.01444862 10.36959376 12.84127582 8.98937864 10.66796875 7.609375 C9.70141357 6.99030273 8.7348584 6.37123047 7.73901367 5.73339844 C5.89585323 4.56694517 4.03041362 3.43505069 2.14575195 2.33691406 C1.43765381 1.89573242 0.72955566 1.45455078 0 1 C0 0.67 0 0.34 0 0 Z " fill="#ECEBF3" transform="translate(321,375)"/>
<path d="M0 0 C0.66 0.33 1.32 0.66 2 1 C-2.3180826 3.6014678 -6.64105023 6.19450982 -10.96826172 8.78076172 C-12.84964558 9.90977289 -14.72431266 11.04912357 -16.59765625 12.19140625 C-18.18900391 13.14853516 -18.18900391 13.14853516 -19.8125 14.125 C-20.76769531 14.70507812 -21.72289062 15.28515625 -22.70703125 15.8828125 C-23.46371094 16.25148438 -24.22039062 16.62015625 -25 17 C-25.66 16.67 -26.32 16.34 -27 16 C-8.46321627 3.18632163 -8.46321627 3.18632163 0 0 Z " fill="#DEDAEA" transform="translate(415,375)"/>
<path d="M0 0 C4.34863652 0.56444825 7.17827655 2.15427964 10.8125 4.5625 C12.27623047 5.52349609 12.27623047 5.52349609 13.76953125 6.50390625 C14.50558594 6.99761719 15.24164063 7.49132812 16 8 C15.01 8.495 15.01 8.495 14 9 C11.55667274 7.92481882 9.23245477 6.80191434 6.875 5.5625 C6.21628906 5.22412109 5.55757813 4.88574219 4.87890625 4.53710938 C3.24893453 3.69850074 1.62398091 2.85015189 0 2 C0 1.34 0 0.68 0 0 Z " fill="#D9D5E8" transform="translate(345,377)"/>
<path d="M0 0 C4.9723422 1.49170266 9.41845739 3.60457417 14 6 C13.67 6.99 13.34 7.98 13 9 C10.83061859 7.69181533 8.6644848 6.37874076 6.5 5.0625 C5.87996094 4.68931641 5.25992187 4.31613281 4.62109375 3.93164062 C3.06370003 2.9818016 1.5296725 1.99386689 0 1 C0 0.67 0 0.34 0 0 Z " fill="#DBD7E9" transform="translate(321,375)"/>
<path d="M0 0 C4.19360449 0.67097672 7.40334352 2.8558394 11 5 C10.34 5.66 9.68 6.32 9 7 C6.03 5.35 3.06 3.7 0 2 C0 1.34 0 0.68 0 0 Z " fill="#EEECF4" transform="translate(335,371)"/>
<path d="M0 0 C0.66 0.33 1.32 0.66 2 1 C0.37829621 2.00533667 -1.24747237 3.00411907 -2.875 4 C-4.23238281 4.8353125 -4.23238281 4.8353125 -5.6171875 5.6875 C-8 7 -8 7 -10 7 C-10 6.34 -10 5.68 -10 5 C-8.38007835 4.13624104 -6.75388139 3.28424146 -5.125 2.4375 C-4.22007812 1.96183594 -3.31515625 1.48617188 -2.3828125 0.99609375 C-1.20332031 0.50302734 -1.20332031 0.50302734 0 0 Z " fill="#E6E3EF" transform="translate(415,375)"/>
</svg>
